Coordinates
version=1
nRows=9
nColumns=36
inDegrees=yes

Units are S.I. units (second, meters, Newtons, ...)
If the header above contains a line with 'inDegrees', this indicates whether rotational values are in degrees (yes) or radians (no).

endheader
time	pelvis_tilt	pelvis_list	pelvis_rotation	pelvis_tx	pelvis_ty	pelvis_tz	hip_flexion_r	hip_adduction_r	hip_rotation_r	knee_angle_r	knee_angle_r_beta	ankle_angle_r	subtalar_angle_r	mtp_angle_r	hip_flexion_l	hip_adduction_l	hip_rotation_l	knee_angle_l	knee_angle_l_beta	ankle_angle_l	subtalar_angle_l	mtp_angle_l	lumbar_extension	lumbar_bending	lumbar_rotation	arm_flex_r	arm_add_r	arm_rot_r	elbow_flex_r	pro_sup_r	arm_flex_l	arm_add_l	arm_rot_l	elbow_flex_l	pro_sup_l
      1.86000000	    -15.83440842	      0.94601197	      2.72215912	     -0.45957602	      1.17450262	     -0.54144868	     39.27290123	     -3.56364812	      2.79862882	     16.58193913	      0.28940943	    -27.13749668	    -12.14204355	     -6.71809387	     36.10519262	     -2.37384641	      3.49701406	     15.82191315	      0.27614448	    -23.28146883	      0.11154838	     -6.71809387	    -21.29389216	     -1.64367879	     -3.74687144	    -38.12363845	    -30.74103013	    -23.97409659	     68.37532091	    113.77591770	    -29.33737820	    -17.46020178	     -9.76444090	    101.98958991	     89.37481916
      1.87000000	    -15.54107116	      1.08642337	      2.91484368	     -0.44673307	      1.15223487	     -0.54077883	     38.51611662	     -3.92536713	      2.44490214	     15.04485047	      0.26258218	    -27.33269937	    -11.30008038	     -6.75100268	     35.54934534	     -2.41466177	      3.20402589	     13.97243962	      0.24386508	    -24.01475301	      0.98975384	     -6.75100268	    -21.02226045	     -1.66968350	     -3.34932756	    -43.01358113	    -28.63357528	    -28.20267057	     71.30417726	    113.84835490	    -32.29566656	    -18.45777818	    -10.06988379	    104.63466501	     89.41248949
      1.88000000	    -15.23500068	      1.18893625	      3.07140083	     -0.43423231	      1.12915961	     -0.54001474	     37.89312599	     -4.18872649	      2.26527488	     13.97372123	      0.24388744	    -27.97742328	    -11.20438499	     -6.74473706	     35.18132831	     -2.48335644	      3.09843847	     12.62375474	      0.22032608	    -24.59251868	      1.50458254	     -6.74473706	    -20.87436348	     -1.90390022	     -3.70989465	    -46.21617222	    -27.37429847	    -30.39701215	     73.14091630	    114.54721730	    -35.69671226	    -18.57841456	    -11.71981466	    107.67470814	     89.93172331
      1.89000000	    -14.73409695	      1.26721595	      3.13489039	     -0.42191969	      1.10564349	     -0.53912844	     37.25516550	     -4.39787444	      1.93902754	     13.48128939	      0.23529289	    -28.02033134	    -11.06158377	     -6.77671619	     34.85124985	     -2.67500333	      2.63507329	     11.89913192	      0.20767903	    -24.39123889	      2.45741787	     -6.77671619	    -21.04378443	     -1.88187152	     -3.38616993	    -49.27889260	    -24.84708622	    -34.45808744	     75.85907339	    114.49901210	    -37.64354532	    -18.64455794	    -12.93770771	    109.46781215	     89.72372297
      1.90000000	    -14.25520766	      1.35055950	      3.03452324	     -0.41017569	      1.08137309	     -0.53780332	     36.87425815	     -4.45183705	      2.14719672	     13.57270599	      0.23688841	    -28.49929488	    -11.53802543	     -6.81717167	     34.75199891	     -2.92557686	      2.34291605	     11.72766233	      0.20468632	    -24.30935650	      3.00224846	     -6.81717167	    -21.30812435	     -2.03461036	     -3.20734854	    -50.86386547	    -22.78248880	    -37.73907179	     77.65700670	    114.22971950	    -39.03241251	    -18.31058842	    -14.42025845	    111.10004484	     89.32326430
      1.91000000	    -13.76591335	      1.39261435	      2.94170220	     -0.39908663	      1.05634030	     -0.53660281	     36.75100261	     -4.45062450	      2.37580938	     14.39556589	      0.25125002	    -28.74738895	    -12.13024018	     -6.85396342	     34.90550124	     -3.14165021	      2.32934194	     12.15586514	      0.21215987	    -24.20126472	      3.09001364	     -6.85396342	    -21.70062445	     -2.13144232	     -3.11907031	    -51.35025500	    -20.89275499	    -40.86357331	     79.22667748	    113.40893294	    -39.42563588	    -17.71697668	    -15.79610694	    112.12436563	     88.81288808
      1.92000000	    -13.32462852	      1.46791786	      2.88541228	     -0.38893362	      1.03031349	     -0.53577276	     37.05791918	     -4.54265211	      2.49541557	     16.09826421	      0.28096771	    -28.57417646	    -12.02570443	     -6.87986265	     35.45061164	     -3.19076459	      2.78129446	     13.39211112	      0.23373643	    -23.71543487	      2.98505638	     -6.87986265	    -22.19907159	     -2.32939767	     -3.21519572	    -50.89524242	    -19.58528241	    -42.85312211	     80.09804818	    112.07233858	    -38.87769631	    -16.84576107	    -17.19682085	    112.84118373	     88.28857626
      1.93000000	    -12.90564737	      1.46374905	      2.99493388	     -0.37953843	      1.00343282	     -0.53525736	     37.58114106	     -4.65822840	      2.59162368	     18.08612741	      0.31566247	    -29.69188592	    -12.54331260	     -6.91331417	     36.37416966	     -3.15378826	      3.42786844	     15.28609019	      0.26679260	    -23.27118675	      2.46875623	     -6.91331417	    -22.78494087	     -2.22726932	     -3.46826102	    -49.59580464	    -17.90200551	    -45.24559251	     81.69708053	    111.00261973	    -37.17014068	    -16.04009507	    -18.20128997	    112.40729562	     87.56678469
      1.94000000	    -12.62287219	      1.22527459	      3.00601215	     -0.37076080	      0.97552521	     -0.53431424	     38.37812083	     -4.35545145	      3.22582389	     20.39217136	      0.35591053	    -30.75004458	    -13.93185709	     -6.96001028	     37.90901622	     -3.38321712	      3.95773942	     17.91280967	      0.31263751	    -23.74213067	      2.10203151	     -6.96001028	    -23.26016269	     -1.96905590	     -3.05402033	    -48.10932663	    -16.53851000	    -46.56949891	     82.59810986	    110.80403484	    -34.25066614	    -15.74502447	    -18.10259691	    111.26097883	     86.79434358
